<svg xmlns="http://www.w3.org/2000/svg" style="display:block" viewBox="0 0 2000 2000" width="500" height="500" preserveAspectRatio="none"><path fill="#0A0A0A" d="M1326.5 627.462c13.65 26.005 34.03 55.367 48.97 81.45 4.98 8.997 12.89 18.194 17.49 27.241 19.6 40.122 46.25 77.255 67.48 116.391 34.21 63.075 68.94 125.766 99.73 190.646 8.98 18.92 19.72 41.73 27.05 61.2a604.44 604.44 0 0 1 1.29 432.66c-26.73 72.51-70.1 140.1-121.59 196.66-17.39 19.1-31.8 37.95-52.95 53.7-8.05 5.99-15.75 16.17-24.14 22.08-40.02 32.16-88.21 64.29-134.9 85.63a630.2 630.2 0 0 1-397.247 44.3c-72.469-16.21-147.39-44.93-208.462-87.27-12.66-8.38-26.485-15.98-38.382-25.39-63.069-49.44-115.779-104.67-159.363-172.02-25.362-34.98-41.005-71.46-56.733-110.93-55.819-140.07-60.023-294.16-3.304-434.71 23.169-62.58 56.595-120.211 85.772-180.066 11.256-23.09 27.96-47.966 40.525-71.066 40.655-74.744 86.163-147.258 130.56-219.846a11254 11254 0 0 0 250.305-425.717c6.022-10.763 10.818-24.091 16.717-34.253 16.748-28.443 32.366-57.292 47.356-86.68 4.592-9 19.883-47.968 26.963-51.133 2.299 2.404 4.257 4.617 6.433 7.133 1.619 7.019 12.1 24.357 15.88 32.526 6.09 10.112 14.34 26.235 18.47 37.187 2.85 4.432 11.06 21.218 13.64 26.548q12.675 21.466 24.66 43.332c2.1 3.83 12.14 22.781 14.24 25.175q7.845 15.536 16.11 30.847c1.29 2.357 8.18 14.415 8.87 16.239 1.29 2.366 3.93 6.9 4.86 9.202 3.44 6.051 6.64 11.688 10.4 17.546.82 1.373 2.48 4.408 3.47 5.423 2.71 5.089 5.16 10.004 8.53 14.696A4519 4519 0 0 0 1270.13 535.1c15.13 24.289 26.23 48.531 44.27 72.873 1.81 3.205 9.73 17.2 12.1 19.489"/><path fill="#099EB2" d="M988.881 249.488c6.859 6.54 22.869 39.164 29.449 48.963 5.64 8.412 11.24 24.717 17.02 34.349 10.39 15.377 18.69 35.029 28.96 50.147 15.17 22.333 25.78 46.51 39.25 69.081l188.12 311.335c6.98 11.388 15.04 22.389 21.95 33.853 16.08 26.692 31.32 53.923 46.7 81.023 9.66 17.034 21.22 34.197 30.45 51.31 11.64 21.555 22.55 43.471 34.31 65.059 10.12 18.582 20.55 36.872 30.61 55.432 6.22 11.46 11.33 25.59 16.85 37.59 12.23 26.52 24.97 53.65 34.18 81.4 16.21 48.89 22.35 94.31 22.86 145.68a494.3 494.3 0 0 1-36.47 195.69c-9.36 22.82-22.47 47.93-32.57 70.82-5.64 10.05-13.74 20.16-19.95 29.72-42.63 65.59-100.3 119.21-165.52 161.87-9.69 6.34-21.78 11.35-32.41 17.31-35.28 19.8-73.43 35.19-112.07 47.07-41.41 9.92-97.65 16.58-139.762 16.9-35.355-.05-67.324-4.86-102.97-9.89-76.366-10.69-150.095-49.07-213.463-91.68-5.3-4.12-10.82-8.32-15.748-12.9-17.524-17.02-41.98-30.08-57.158-49.23-19.469-25.38-43.865-47.79-60.592-75.15-24.727-40.45-49.914-85.05-64.643-130.17a544.6 544.6 0 0 1-5.433-311.51c10.247-36.16 28.575-68.61 44.312-102.01 20.577-43.67 41.009-85 66.802-126.037 6.012-9.564 10.191-22.33 16.132-32.368 15.949-26.946 31.54-54.067 48.288-80.537 6.79-10.843 12.938-26.162 19.933-37.388 7.597-12.194 16.236-23.695 23.725-35.969l96.072-160.664c4.356-7.124 9.304-14.022 13.587-21.151 10.965-18.25 22.139-36.29 33.717-54.156 2.374-4.212 4.872-8.545 7.031-12.862 16.594-33.17 39.354-62.56 56.603-95.431 16.359-31.175 34.382-61.237 52.64-91.307 8.187-13.482 14.193-28.546 21.497-42.501 5.666-10.714 12.204-20.843 17.711-31.691"/><path fill="#0A0A0A" d="M983.561 466.346c-2.971 13.218-7.226 26.428-10.069 39.611-11.777 54.605-28.379 107.466-45.102 160.679-2.108 6.707-4.05 13.978-5.895 20.775-4.178 15.397-9.543 30.394-14.139 45.659-13.348 54.498-33.059 107.244-49.472 160.883-9.219 30.126-16.1 57.428-21.922 88.361-3.707 19.696-9.689 39.486-13.275 59.416-13.034 72.42-17.388 146.13 1.643 217.94 6.205 23.16 16.694 51.17 26.082 73.43 2.096 4.97 6.348 11.15 9.208 15.96 34.11 57.42 81.907 108.63 144.28 135.1 16.33 6.93 32.51 13.94 49.98 17.68 77.18 16.97 148.49.8 215.23-39.63 8.53-5.17 16.28-12.72 23.81-19.02 37.65-31.47 60.63-69.97 76.41-116.04 5.25-15.33 7.57-30.84 10.97-46.69.46-3.32.08-5 1.88-7.16 1.22 3.41.98 4.61.91 8.18 1.52 8.96 1.62 24.16 1.84 33.2 1.43 57.3-8.43 116.28-33.53 168.12-5.15 10.63-8.54 23.09-14.31 33.83-7.12 13.27-15.67 25.48-24.41 37.77a415.47 415.47 0 0 1-210.42 154.76c-60.23 19.6-151.659 18.33-213.418 4.27-24.288-5.53-55.69-18.8-77.99-30.18a413.2 413.2 0 0 1-204.759-240.68c-20.848-65.42-20.615-153.32-4.903-220.13 18.258-77.65 61.531-149.73 98.618-219.17L832.75 761.033c4.474-8.173 9.646-22.062 13.71-28.692 17.643-28.661 32.455-58.7 49.678-87.619 6.652-12.31 11.25-25.882 17.699-38.271 19.164-36.818 41.219-72.687 56.309-111.43 3.803-9.766 8.586-19.368 13.415-28.675"/><path fill="#001311" d="M1381.3 1280.46c.46-3.32.08-5 1.88-7.16 1.22 3.41.98 4.61.91 8.18l-1.53 4.35c-.72-1.05-1.01-3.9-1.26-5.37"/></svg>