<svg xmlns="http://www.w3.org/2000/svg" style="display:block" viewBox="0 0 2048 2048" width="1638" height="1638" preserveAspectRatio="none"><path fill="#0A0A0A" d="M884.599 79.421c82.201-7.936 200.081 28.4 274.251 60.101 186.93 79.902 360.63 212.167 493.09 366.105a1190 1190 0 0 1 77.42 98.666c18.49 26.703 38.51 61.087 53.79 89.864 43.39 81.761 75.73 163.078 68.51 256.998a303.85 303.85 0 0 1-105.06 208.325c-28.55 143.08 13.52 275.21 75.82 402.82 37.79 77.4 74.33 126.11 58.56 218.63-9.93 60.79-43.97 115-94.4 150.36a229.05 229.05 0 0 1-171.96 37.3 228.2 228.2 0 0 1-147.75-95.1c-42.88-61.89-52.4-140.98-25.42-211.27 6.92-18.02 17.2-35.31 26.09-52.53a1463 1463 0 0 0 29.16-61.02c15.05-32.97 30-69.67 44.04-103.27 13.1-31.36 23.12-74.77 29.35-108.16 4.65-25.79 7.53-51.86 8.63-78.05-20.93 16.27-42.54 38.68-63.3 55.65-46.56 38.03-100.72 59.82-159.34 69.64-7.84 5.68-22.28 18.99-30.02 25.69l-62.4 54.22-201.12 171.68c-25.58 21.83-72.598 66.05-100.494 81.25-176.982 96.42-412.04-27.89-548.216-142.83-85.461-72.13-156.418-165.53-200.861-264.81-48.333-107.98-61.623-234.61 15.726-332.559 4.496-5.785 14.63-26.816 18.57-34.22l131.266-246.897 35.676-67.388c7.742-14.461 15.779-28.929 23.061-43.576 6.177-12.541 5.506-27.117 7.903-40.857 7.855-44.453 21.563-91.414 48.695-128.117 16.78-22.7 35.114-45.215 52.328-67.751a7470 7470 0 0 1 87.916-112.431c14.996-18.957 29.837-38.069 45.105-56.811 53.278-65.398 123.185-93.997 205.384-99.652"/><path fill="#1D222A" d="M431.446 708.684c2.192 2.575 7.933 30.255 9.569 36.136a683 683 0 0 0 27.528 80.784c70.97 168.098 224.093 332.536 377.861 430.086 60.967 38.68 106.659 59.98 172.566 86.82q-53.308 47.25-107.134 93.9a15914 15914 0 0 1-173.146 151.7c-26.723 24.91-55.176 48-82.305 73.56-27.987-12.37-49.591-22.3-76.581-37.27-148.028-82.11-289.543-231.53-339.442-395.42-12.742-41.85-19.708-96.78-9.052-138.96 5.058-17.64 12.872-44.49 24.016-59.47 16.202-21.78 26.19-41.232 38.916-65.226l63.305-118.354a7257 7257 0 0 1 73.899-138.286"/><path fill="#E35F43" d="M627.531 326.708c2.945 4.298 1.742 19.642 1.967 25.606.856 22.719 4.638 45.505 10.146 67.556 13.61 54.493 36.157 107.034 63.7 155.898C821.365 785.14 1013.76 960.051 1227.05 1068.69c49.28 25.1 102.47 49.42 155.86 64.32-64.17 49.84-78.09 80.62-160.97 114.23-27.9 9.76-46.44 14.21-75.76 17.94-126.37 16.06-253.095-43.16-350.607-119.7-139.444-109.45-283.808-290.696-305.95-472.072-8.027-65.752-1.903-152.24 31.876-210.18 8.122-13.932 23.042-31.11 33.478-44.501a6661 6661 0 0 1 72.554-92.019"/><path fill="#0A0A0A" d="M728.142 768.149c57.824-3.569 107.622 40.348 111.311 98.164s-40.124 107.706-97.933 111.516c-57.979 3.82-108.047-40.15-111.747-98.137s40.375-107.964 98.369-111.543"/><path fill="#E35F43" d="M703.943 930.298a65.555 65.555 0 0 1 4.199-117.723 65.55 65.55 0 0 1 68.764 9.638c25.741 21.566 31.023 59.096 12.234 86.928-18.788 27.833-55.571 36.967-85.197 21.157"/><path fill="#B14B3C" d="M776.906 822.213c25.741 21.566 31.023 59.096 12.234 86.928-18.788 27.833-55.571 36.967-85.197 21.157 14.274-3.068 23.521-4.387 36.314-12.168 34.997-21.289 41.16-58.364 36.649-95.917"/><path fill="#04A3BA" d="M1331.14 748.436c130.79-9.343 261.92 26.18 338.19 140.44 43.87 65.733 53.93 137.114 40.42 213.454-3.03 17.08-7.63 33.72-10.97 50.68a530 530 0 0 0-9.71 87.73c-2.3 81.23 16.56 159.23 44.42 234.89a1555 1555 0 0 0 48.13 113.45c29.96 64.05 64.64 113.24 48.65 190.09a182.87 182.87 0 0 1-78.71 114.43c-85.73 55.61-194.12 26.85-248.29-57.97-34.86-59.76-35.15-128.38.43-188.1 7.03-11.79 14.22-27.19 20-39.65 16.22-35.05 31.77-70.4 46.65-106.03 23.59-56.7 40.29-106.95 49.2-168.34 4.44-30.66 7.46-55.67 7.38-86.46.56-106.68-64.83-200.86-162.71-241.29-48.04-19.844-95.14-33.458-142.68-57.051a1251.4 1251.4 0 0 1-221.15-137.647c-20.86-16.137-45.16-35.52-64.06-53.502 12.17-.165 25.54.007 37.7.474 86.22 3.31 171.05-5.617 257.11-9.598"/><path fill="#0A0A0A" d="M1656.56 1403.75c.95 4.79-7.78 38.71-9.47 45.94-9.28 40.49-18.84 80.92-28.69 121.28-15.84 64.74-40.54 137.01 6.14 196.1 15.95 20.18 37.68 33.56 63.55 36.15a90.72 90.72 0 0 0 65.63-19.83c20.23-16.66 28.12-36.2 30.47-61.59 4.5 46.14-5.46 77.55-34.52 113.88a132.8 132.8 0 0 1-41.93 31.12c-28.84 13.45-65.29 14.47-95.33 3.55-34.31-12.46-63.87-41.47-79.23-74.34-11.96-25.6-12.39-58.64-6.5-85.94 5.95-27.64 17.5-47.27 29.81-72.23q11.97-24.54 23.1-49.47c15.87-36 31.17-72.24 45.91-108.72 10.37-25.18 21.31-50.51 31.06-75.9"/><path fill="#0A0A0A" d="M1349.28 803.418c111.37-8.264 239.66 54.999 283.01 160.7 19.4 47.282 23.2 93.072 16.68 143.192-2.33-8.57-3.5-16.92-6.32-25.86-8.86-28.06-22.39-52.58-39.77-76.02-90.09-117.136-231.25-158.357-372.12-168.295-11-.776-23.98-1.565-34.73-3.584l-1.47-.284c56.52-9.931 95.7-26.115 154.72-29.849"/><path fill="#E35F43" d="M872.455 361.405c81.453-12.178 230.805 50.048 293.395 102.245-53.9-1.29-109.02-.171-162.99-.933-24.912-.351-56.732 1.451-81.015-.606 60.525 45.846 118.085 99.377 177.795 146.568 9.64 7.622 19.92 16.505 28.87 24.936-12.14-32.64-26.26-64.383-38.55-97.4 70.96-5.024 120.75-1.753 189.24 21.704 75.76 25.946 161.05 83.87 196.75 157.02l-12.43-6.675c-52.77-31.255-115.54-55.816-172.68-78.467-35.39-14.028-79.99-31.531-115.95-43.339 26.7 39.67 55.21 78.157 79.74 119.289-33.08 5.405-97.41-1.465-130.28-6.939-61.38-10.221-125.519-28.451-181.953-54.816-7.073-3.305-26.962-12.76-31.654-17.821-11.421-12.318-23.97-31.767-33.981-45.801 42.985 5.689 78.701 8.567 122.585 8.591-61.825-38.431-127.636-97.651-171.848-155.924-9.566-12.607-19.432-29.862-27.405-43.62 18.8-20.305 45.97-25.562 72.361-28.012"/><path fill="#E35F43" d="M730.756 527.785c-36.64-74.493-68.351-180.071-40.891-261.637a193.82 193.82 0 0 1 98.585-113.539c87.702-43.104 206.686-20.784 295.07 11.052 234.45 84.449 447.96 252.125 593.05 453.992 63.28 88.04 136.99 229.592 122.39 341.202-16.23 9.795-26.57 13.706-45 17.322-4.58-22.285-11.52-34.943-8.09-58.863 1-6.964-.91-21.514-1.75-29.071-5.81-52.284-26.42-101.631-49.89-148.227-67.35-139.048-183.63-260.246-306.46-355.296-125.77-97.325-336.53-220.436-502.271-204.667-45.913 6.503-93.534 25.824-121.851 64.198-31.834 43.142-36.456 89.805-29.458 141.192-.146 18.741-3.497 42.348-2.96 61.591.289 10.379 1.645 76.643-.474 80.751"/><path fill="#B14B3C" d="M734.19 385.443c32.826 190.964 220.882 385.115 374.06 493.297a1293.4 1293.4 0 0 0 238.55 135.47c61.11 26.24 143.4 41.85 183.02 100.66-39.2.92-89.37-10.66-126.81-22.02-169.38-51.4-329.74-160.908-456.865-282.027-84.462-80.472-164.732-177.707-215.389-283.038 2.119-4.108.763-70.372.474-80.751-.537-19.243 2.814-42.85 2.96-61.591"/><path fill="#1D222A" d="M1161.47 1381.87c36.14 7.73 67.42 9.38 103.99 9.44-15.53 15.49-37.7 33.95-54.58 48.75-37.93 33.18-76.07 66.13-114.41 98.85l-96.44 82.42c-38.296 32.42-54.132 49.63-102.724 67.01-32.937 9.76-60.636 11.82-94.537 10.14 39.077-32.47 79.332-69.64 117.444-103.63 50.906-45.3 102.067-90.32 153.467-135.05 29-25.57 58.6-53 87.79-77.93"/><path fill="#B14B3C" d="M1509.16 1152.83c16.96 1.66 31.26 1.86 48.04-2.13 6.97 15.53 13.06 29.81 15.76 46.84-30.94 26.29-63.75 55.42-95.04 80.82-4.07-2.31-97.82-2.16-110.3-2.24 46.75-37.24 95.88-83.27 141.54-123.29"/><path fill="#E35F43" d="M1367.62 1276.12c12.48.08 106.23-.07 110.3 2.24-68.11 59.64-170.77 63.49-256.43 58.1 55.1-11.77 99.93-26.91 146.13-60.34"/><path fill="#B14B3C" d="M1753.96 976.177c18.43-3.616 28.77-7.527 45-17.322-5.77 40.248-17.29 73.515-40.11 107.565 2.11-32.37 2.06-57.97-4.89-90.243"/></svg>